<?xml version="1.0" encoding="UTF-8"?>
<svg version="1.1" xmlns="http://www.w3.org/2000/svg" width="1254" height="1254">
<path d="M0 0 C413.82 0 827.64 0 1254 0 C1254 413.82 1254 827.64 1254 1254 C840.18 1254 426.36 1254 0 1254 C0 840.18 0 426.36 0 0 Z " fill="#FDFDFD" transform="translate(0,0)"/>
<path d="M0 0 C10.03319604 7.19853842 18.15007371 17.19793636 20.6640625 29.5078125 C21.09910927 35.50468475 20.90175518 41.50607227 20.6640625 47.5078125 C21.31141357 47.86907227 21.95876465 48.23033203 22.62573242 48.60253906 C36.3888894 56.28689758 50.11983065 64.02192095 63.79394531 71.86376953 C66.95451109 73.67418548 70.11765195 75.48004442 73.28125 77.28515625 C84.75717231 83.83361908 96.22345249 90.39775985 107.6640625 97.0078125 C120.1300665 104.20997174 132.62767511 111.35610936 145.13183594 118.49169922 C150.39482778 121.49530753 155.65578366 124.50247826 160.91690063 127.5093689 C162.66349072 128.50748575 164.41021581 129.50536594 166.15698242 130.50317383 C171.43643725 133.51912919 176.71520223 136.53626354 181.99078369 139.55899048 C184.94395043 141.2510092 187.89762376 142.94214196 190.8515625 144.6328125 C191.42791443 144.96271179 192.00426636 145.29261108 192.5980835 145.63250732 C202.13766579 151.0901605 211.71319819 156.48031939 221.32104492 161.81689453 C222.27213135 162.34653809 223.22321777 162.87618164 224.203125 163.421875 C225.11352539 163.92750977 226.02392578 164.43314453 226.96191406 164.95410156 C230.54971836 167.01705662 234.02542778 169.24760346 237.48583984 171.51708984 C239.59999459 172.70652309 239.59999459 172.70652309 241.8359375 172.24584961 C244.01639688 171.36557067 245.48999771 170.20729248 247.2890625 168.6953125 C253.58336925 163.81927599 260.70537697 161.0473844 268.6640625 160.5078125 C269.60894531 160.43304688 270.55382812 160.35828125 271.52734375 160.28125 C283.00317817 159.75899646 292.81971745 163.10438895 301.6015625 170.5625 C307.95019554 176.55041526 312.81509281 182.1708275 315.6640625 190.5078125 C315.88835938 191.14203125 316.11265625 191.77625 316.34375 192.4296875 C319.85023388 204.05392174 317.39041773 215.50011295 312.37890625 226.26953125 C306.98006143 236.08971416 298.93422855 242.29524836 288.6640625 246.5078125 C287.78105469 246.87777344 286.89804687 247.24773437 285.98828125 247.62890625 C281.4995756 248.81569682 277.28454005 248.75986329 272.6640625 248.6953125 C271.7875 248.69466797 270.9109375 248.69402344 270.0078125 248.69335938 C265.43510166 248.66236962 261.1758733 248.32484471 256.6640625 247.5078125 C256.22126953 248.42369141 255.77847656 249.33957031 255.32226562 250.28320312 C253.63843641 253.76532785 251.95319372 257.24676706 250.26757812 260.72802734 C249.54585362 262.21905908 248.8244848 263.71026305 248.10351562 265.20166016 C244.26927025 273.13255038 240.40723866 281.0460698 236.4453125 288.9140625 C234.27883493 293.21820481 232.16628108 297.52776108 230.203125 301.9296875 C226.74572443 309.66616377 222.85503319 317.19395556 219.0390625 324.7578125 C217.52366029 327.76182951 216.01102907 330.76721886 214.5 333.7734375 C214.15931488 334.4465094 213.81862976 335.1195813 213.46762085 335.81304932 C211.37003797 339.98682912 209.48302508 344.20542171 207.6640625 348.5078125 C207.06810575 349.76878155 206.46043896 351.02441634 205.83203125 352.26953125 C205.51129639 352.90761719 205.19056152 353.54570313 204.86010742 354.203125 C204.5272876 354.86054687 204.19446777 355.51796875 203.8515625 356.1953125 C203.50262939 356.89011719 203.15369629 357.58492187 202.79418945 358.30078125 C201.17817233 361.51729464 199.55160081 364.7279663 197.9140625 367.93359375 C197.3984375 368.94808594 196.8828125 369.96257812 196.3515625 371.0078125 C195.90167969 371.884375 195.45179688 372.7609375 194.98828125 373.6640625 C193.9496019 375.89461875 193.08312598 378.0548749 192.25390625 380.36328125 C190.70670087 384.57108766 188.69097752 388.39536281 186.5390625 392.3203125 C181.78476192 401.1878643 177.35251662 410.19991755 172.9765625 419.2578125 C172.45290604 420.34151627 172.45290604 420.34151627 171.91867065 421.44711304 C171.56257721 422.18410431 171.20648376 422.92109558 170.83959961 423.68041992 C170.09101045 425.22966818 169.34239322 426.77890287 168.59375 428.328125 C168.2095137 429.1234816 167.8252774 429.9188382 167.42939758 430.73829651 C164.21864978 437.37748303 160.9803632 444.00298103 157.734375 450.625 C156.97265236 452.1791864 156.97265236 452.1791864 156.19554138 453.76477051 C154.17362492 457.88923256 152.15120448 462.0134448 150.12661743 466.13659668 C147.38226476 471.72612185 144.64769451 477.3202062 141.92645264 482.92102051 C140.68417425 485.46660106 139.42699526 488.00442019 138.16845703 490.54199219 C137.41766608 492.07977158 136.66746773 493.6178405 135.91796875 495.15625 C135.56999741 495.84764069 135.22202606 496.53903137 134.86351013 497.25137329 C133.11034508 500.88677461 133.11034508 500.88677461 132.81640625 504.84667969 C134.1380913 507.43675603 136.38085449 508.75149865 138.6640625 510.5078125 C147.193189 520.45051862 152.09759476 530.95816715 151.9375 544.0859375 C150.89141114 557.17699236 145.4065514 567.79084875 135.6640625 576.5078125 C134.6121875 577.4978125 134.6121875 577.4978125 133.5390625 578.5078125 C122.57691088 586.13365711 110.71372569 587.82369534 97.6640625 586.5078125 C85.2308573 583.66213773 75.96835503 576.48107935 69.0703125 565.90625 C66.7019792 561.86692599 64.6640625 558.29238966 64.6640625 553.5078125 C63.47151855 553.61270996 63.47151855 553.61270996 62.25488281 553.71972656 C34.70663195 556.10157422 7.12000612 557.72258387 -20.48303223 559.30310059 C-21.87931322 559.38305549 -23.27559414 559.46301154 -24.671875 559.54296875 C-25.35938339 559.5823204 -26.04689178 559.62167206 -26.75523376 559.66221619 C-36.66306316 560.23004198 -46.56961292 560.81641817 -56.47465897 561.43099785 C-58.44794151 561.55342509 -60.42128099 561.67493378 -62.3946228 561.79640198 C-74.38732872 562.54739601 -86.36314075 563.4904519 -98.3359375 564.5078125 C-109.49509308 590.24512962 -120.56977692 616.01812367 -131.60990906 641.80670166 C-134.2072928 647.87359687 -136.80717416 653.93941101 -139.41015625 660.00390625 C-146.32191463 676.10966325 -153.19526594 692.23117445 -160.04071045 708.36523438 C-166.33823934 723.20373969 -172.72167482 738.00341523 -179.15283203 752.78442383 C-181.37753551 757.90546537 -183.56803915 763.03941277 -185.7109375 768.1953125 C-187.01434064 771.33052546 -188.31822267 774.46547887 -189.62890625 777.59765625 C-192.2560575 783.87856861 -194.82916772 790.17786871 -197.3359375 796.5078125 C-196.46582031 796.89839844 -196.46582031 796.89839844 -195.578125 797.296875 C-186.39808943 802.25473393 -181.51923011 811.95793466 -178.3359375 821.5078125 C-177.00898757 835.80359841 -178.06401212 847.55428704 -186.7109375 859.3828125 C-194.37235562 868.49102203 -204.29940723 874.93498096 -216.3359375 876.5078125 C-229.45164466 877.52934185 -239.62249096 874.11376764 -250.3359375 866.5078125 C-259.70338733 858.17769772 -265.36856867 847.36288248 -266.5859375 834.9609375 C-267.10146659 823.81262087 -263.549726 813.04060071 -256.3359375 804.5078125 C-254.19285221 802.5131825 -252.0501643 800.56853813 -249.77734375 798.72265625 C-247.97405275 795.95174569 -248.31285899 794.28727272 -248.78514099 791.09910583 C-250.01603401 785.30821059 -251.99616249 779.72002861 -253.8515625 774.10546875 C-254.3096812 772.70054065 -254.76708539 771.29537939 -255.22381592 769.88999939 C-256.42566458 766.19724135 -257.63569773 762.50722131 -258.84796143 758.81787109 C-260.77169524 752.95900301 -262.68396302 747.09637533 -264.59526062 741.2334404 C-265.05759409 739.81540947 -265.52025049 738.39748379 -265.98323059 736.97966385 C-268.89806312 728.0487669 -271.69832916 719.09928448 -274.28808594 710.06811523 C-276.12650357 703.82169297 -278.24002429 697.6720241 -280.3359375 691.5078125 C-285.68011433 675.67592839 -285.68011433 675.67592839 -287.9609375 667.6328125 C-290.21893889 659.67720188 -292.85893042 651.8651793 -295.57080078 644.05322266 C-297.66222096 637.92666417 -299.24827877 631.89113546 -300.3359375 625.5078125 C-301.06707764 625.5493042 -301.79821777 625.5907959 -302.55151367 625.63354492 C-315.15210779 626.23650651 -325.96111326 620.93424284 -335.37109375 612.734375 C-343.58436155 604.17813557 -348.23827924 591.87974515 -348.6484375 580.1328125 C-348.37015009 568.89309319 -343.73017425 558.57378439 -336.265625 550.1796875 C-323.64605202 538.32904908 -311.09732239 536.07307917 -294.3359375 536.5078125 C-294.3359375 537.1678125 -294.3359375 537.8278125 -294.3359375 538.5078125 C-293.005625 538.415 -293.005625 538.415 -291.6484375 538.3203125 C-287.94281318 538.53006482 -286.44422418 539.62648109 -283.3359375 541.5078125 C-278.90452695 541.36267897 -276.43088002 537.88969165 -273.5859375 534.8828125 C-272.50576872 533.77162398 -271.42374252 532.66223794 -270.33984375 531.5546875 C-269.81922363 531.02166016 -269.29860352 530.48863281 -268.76220703 529.93945312 C-266.49889013 527.66761295 -264.07894872 525.6064953 -261.640625 523.52734375 C-258.40962024 520.69610738 -255.28323145 517.7572892 -252.1484375 514.8203125 C-247.34977518 510.32592074 -242.54515118 505.8389725 -237.7109375 501.3828125 C-236.91876831 500.65251831 -236.91876831 500.65251831 -236.1105957 499.9074707 C-235.05007233 498.93006197 -233.98944461 497.95276644 -232.92871094 496.97558594 C-230.22943791 494.4881504 -227.53280767 491.9978526 -224.8359375 489.5078125 C-221.6106415 486.52987293 -218.38488586 483.5524437 -215.15625 480.578125 C-209.34293748 475.22068873 -203.54815647 469.84434454 -197.7734375 464.4453125 C-192.3544282 459.37884866 -186.90141775 454.3529025 -181.42578125 449.34765625 C-177.24755235 445.51749979 -173.1126988 441.64084893 -168.97265625 437.76953125 C-164.41631322 433.51074532 -159.83984534 429.2745941 -155.25244141 425.04931641 C-151.07601273 421.19915131 -146.92243483 417.32500371 -142.7734375 413.4453125 C-138.31472384 409.27659647 -133.84127549 405.12611474 -129.3359375 401.0078125 C-122.28567828 394.56159156 -115.31226838 388.03383054 -108.3359375 381.5078125 C-94.16223404 368.24900266 -94.16223404 368.24900266 -87.4609375 362.1328125 C-81.89954489 357.04853668 -76.40382895 351.89684593 -70.93017578 346.71826172 C-67.22208784 343.21187242 -63.49616093 339.72934062 -59.7265625 336.2890625 C-58.62103027 335.27344238 -58.62103027 335.27344238 -57.49316406 334.23730469 C-56.08458566 332.94477937 -54.67010097 331.6586531 -53.24902344 330.37988281 C-52.61770508 329.79819336 -51.98638672 329.21650391 -51.3359375 328.6171875 C-50.7790625 328.11155273 -50.2221875 327.60591797 -49.6484375 327.08496094 C-48.10254822 325.22736332 -47.64482029 323.89320808 -47.3359375 321.5078125 C-47.6659375 320.8478125 -47.9959375 320.1878125 -48.3359375 319.5078125 C-53.78408422 320.08392201 -58.37202725 321.46097157 -63.4609375 323.4453125 C-71.61881117 326.537436 -79.83120931 329.43486298 -88.0859375 332.2578125 C-97.57820231 335.50831625 -107.04572917 338.81843232 -116.49203491 342.20065308 C-135.58873434 349.03393874 -154.83758362 355.398001 -174.09912109 361.74853516 C-176.36470457 362.49571921 -178.62994545 363.24394319 -180.89477539 363.9934082 C-182.84741757 364.6394173 -184.80094052 365.28277461 -186.75561523 365.92260742 C-190.92081351 367.30039554 -195.01507101 368.75605157 -199.07421875 370.421875 C-204.90757045 372.79387727 -210.86628836 374.74712969 -216.84771729 376.70947266 C-220.48061179 377.90230852 -224.10933473 379.10771682 -227.73828125 380.3125 C-228.50889893 380.56819763 -229.2795166 380.82389526 -230.07348633 381.08734131 C-239.38490777 384.18151376 -248.6749798 387.33815665 -257.9609375 390.5078125 C-258.83404572 390.8058075 -259.70715393 391.10380249 -260.60671997 391.41082764 C-272.958316 395.63064377 -285.27115519 399.94675717 -297.56225586 404.33959961 C-309.53252612 408.60947522 -321.56101378 412.7042821 -333.59399414 416.79345703 C-343.89006177 420.29478551 -354.17313175 423.83148942 -364.4453125 427.40234375 C-365.63663284 427.81619827 -366.82795319 428.2300528 -368.05537415 428.65644836 C-373.95583343 430.70663659 -379.85505347 432.76029698 -385.75268555 434.81860352 C-387.90409119 435.56669247 -390.05553772 436.31466385 -392.20703125 437.0625 C-393.70245453 437.58642082 -393.70245453 437.58642082 -395.22808838 438.1209259 C-396.13822693 438.43664047 -397.04836548 438.75235504 -397.98608398 439.07763672 C-398.78175278 439.35517792 -399.57742157 439.63271912 -400.39720154 439.91867065 C-402.3359375 440.5078125 -402.3359375 440.5078125 -404.3359375 440.5078125 C-404.32691406 441.21164062 -404.31789063 441.91546875 -404.30859375 442.640625 C-404.65770319 454.26748707 -409.57326468 463.97845595 -417.3359375 472.5078125 C-426.39059767 479.94320862 -438.23973209 485.13612781 -450.109375 484.7578125 C-463.15244704 483.29332722 -473.32414696 477.96085832 -482.3359375 468.5078125 C-491.27352103 457.19466211 -493.95002271 444.8049897 -492.3359375 430.5078125 C-489.04782791 418.06401846 -480.75258524 407.66219367 -469.81640625 400.96484375 C-459.62490838 395.62644011 -450.57294662 395.2444451 -439.3359375 395.5078125 C-438.94921875 394.46882813 -438.5625 393.42984375 -438.1640625 392.359375 C-430.30846643 371.29646318 -430.30846643 371.29646318 -427.3359375 365.5703125 C-425.31289539 361.64230466 -423.86787751 357.58728128 -422.3984375 353.42578125 C-420.93740621 349.41331665 -419.28771511 345.49096598 -417.625 341.55859375 C-416.75440821 339.49819317 -415.89529443 337.43291046 -415.046875 335.36328125 C-413.2502363 330.98190772 -411.46368573 326.64614016 -409.2734375 322.4453125 C-407.22083834 318.48025147 -405.80839905 314.35011606 -404.328125 310.14453125 C-403.4915411 307.92132599 -402.57724696 305.90993309 -401.4609375 303.8203125 C-399.42427566 299.93068772 -397.91391565 295.87077422 -396.3984375 291.7578125 C-390.21472354 274.98205768 -390.21472354 274.98205768 -386.3984375 267.7578125 C-384.08850117 263.28696799 -382.41657343 258.56799676 -380.70532227 253.84472656 C-378.89404346 248.87415354 -376.89445298 243.99883032 -374.84594727 239.12158203 C-373.03879036 234.79667717 -371.26222698 230.45970269 -369.48828125 226.12109375 C-368.79362257 224.42382699 -368.09896107 222.72656138 -367.40429688 221.02929688 C-366.3352399 218.41651081 -365.26659357 215.80355956 -364.19897461 213.19018555 C-363.1508046 210.62498411 -362.10091958 208.06048992 -361.05078125 205.49609375 C-360.7371312 204.72711258 -360.42348114 203.95813141 -360.10032654 203.16584778 C-357.94262817 197.90175878 -355.67224921 192.69501354 -353.3359375 187.5078125 C-353.91601562 187.0953125 -354.49609375 186.6828125 -355.09375 186.2578125 C-365.16974667 178.80889087 -371.40313693 169.73821488 -374.3359375 157.5078125 C-375.87219109 143.67367616 -374.05585302 132.51111964 -365.5859375 121.1953125 C-357.48160961 111.77799294 -347.98303769 105.4867295 -335.40234375 104.0625 C-321.3812099 103.39796725 -309.92029939 107.24215799 -299.3359375 116.5078125 C-295.51967148 120.2321203 -293.19374726 123.48230868 -291.3359375 128.5078125 C-290.21574219 128.0746875 -289.09554687 127.6415625 -287.94140625 127.1953125 C-286.46884954 126.63255197 -284.99618778 126.07006626 -283.5234375 125.5078125 C-282.78544922 125.22164062 -282.04746094 124.93546875 -281.28710938 124.640625 C-280.57490234 124.36992187 -279.86269531 124.09921875 -279.12890625 123.8203125 C-278.14700317 123.44326172 -278.14700317 123.44326172 -277.14526367 123.05859375 C-275.3359375 122.5078125 -275.3359375 122.5078125 -272.3359375 122.5078125 C-272.3359375 121.8478125 -272.3359375 121.1878125 -272.3359375 120.5078125 C-271.10141846 120.04930908 -269.86689941 119.59080566 -268.5949707 119.1184082 C-263.95585617 117.39520257 -259.31710996 115.67100727 -254.6784668 113.9465332 C-252.68182026 113.20440682 -250.68507776 112.46253857 -248.68823242 111.72094727 C-233.81405978 106.20246127 -233.81405978 106.20246127 -219.00561523 100.51074219 C-215.17376325 99.07121334 -211.28784236 97.82221041 -207.3828125 96.59765625 C-204.91307041 95.7142485 -202.59451463 94.74651021 -200.2109375 93.6640625 C-194.7646237 91.20504159 -189.18964833 89.1395399 -183.5859375 87.0703125 C-174.50641699 83.70077542 -165.45718332 80.26147154 -156.42437744 76.76864624 C-135.34990083 68.62012785 -114.24400872 60.56213773 -93.0859375 52.6328125 C-91.48496719 52.03262802 -91.48496719 52.03262802 -89.85165405 51.4203186 C-86.82071363 50.28450956 -83.78938148 49.14975517 -80.7578125 48.015625 C-79.84709488 47.67465286 -78.93637726 47.33368073 -77.99806213 46.9823761 C-76.74363564 46.51374397 -76.74363564 46.51374397 -75.46386719 46.03564453 C-74.37123566 45.62718796 -74.37123566 45.62718796 -73.25653076 45.21047974 C-71.62657574 44.61414525 -69.98248886 44.05666295 -68.3359375 43.5078125 C-68.31015625 42.55261719 -68.284375 41.59742188 -68.2578125 40.61328125 C-67.62207099 26.12126456 -63.93571755 14.85558434 -53.203125 4.4375 C-37.68773391 -8.4085765 -17.15618604 -10.95930279 0 0 Z " fill="#030303" transform="translate(735.3359375,204.4921875)"/>
<path d="M0 0 C2.26647668 0.90659067 3.74994631 1.70241316 5.33056641 3.58349609 C6.40582199 7.46492563 4.47899976 10.43927441 2.8359375 13.9140625 C2.31321762 15.06858414 2.31321762 15.06858414 1.77993774 16.24642944 C0.6596113 18.71295636 -0.48192179 21.16894606 -1.625 23.625 C-2.73920498 26.05559788 -3.84898461 28.48818146 -4.9584198 30.92095947 C-5.67752608 32.4967974 -6.3984777 34.07179456 -7.12129211 35.64593506 C-9.22743071 40.24475325 -11.19903833 44.86677841 -13.02832031 49.58349609 C-15.19237674 54.96536305 -17.66615072 60.21867029 -20.0625 65.5 C-24.20065072 74.66132264 -28.24873522 83.84903109 -32.125 93.125 C-36.97595953 104.71284681 -42.03539504 116.20294927 -47.125 127.6875 C-59.73526904 156.15427986 -72.20475441 184.67497183 -84.35522461 213.34130859 C-89.93735579 226.51068875 -95.55267682 239.66557913 -101.1875 252.8125 C-101.62075592 253.82364868 -102.05401184 254.83479736 -102.50039673 255.87658691 C-107.65360428 267.90101645 -112.82434449 279.91773839 -118.015625 291.92578125 C-118.51278519 293.07623428 -119.00994537 294.22668732 -119.52217102 295.41200256 C-121.91785926 300.95531469 -124.31564963 306.49769781 -126.7175293 312.03833008 C-130.87394513 321.64135163 -134.95056647 331.25717442 -138.7902832 340.99121094 C-140.27105175 344.67415577 -141.90080283 348.23744662 -143.625 351.8125 C-145.96603495 356.72527688 -148.13488835 361.6650849 -150.10546875 366.73828125 C-151.8814177 371.22856264 -153.89455812 375.62190654 -155.9296875 380 C-158.17567939 384.90034593 -160.08434263 389.87938778 -161.9375 394.9375 C-163.93364665 400.37856891 -166.15810693 405.51841797 -168.85546875 410.65625 C-170.50290699 414.02984367 -171.66704972 417.53728218 -172.90234375 421.078125 C-174.54209599 425.44301709 -176.55400151 429.61743484 -178.54296875 433.83203125 C-180.25738055 437.55961294 -181.77369667 441.34047231 -183.23828125 445.171875 C-184 447 -184 447 -185 448 C-186.68608966 448.07205511 -188.37500659 448.08386068 -190.0625 448.0625 C-190.98160156 448.05347656 -191.90070313 448.04445313 -192.84765625 448.03515625 C-193.55792969 448.02355469 -194.26820313 448.01195312 -195 448 C-198.84785442 435.9908331 -202.68867114 423.9794419 -206.51953125 411.96484375 C-219.10820202 372.28091858 -219.10820202 372.28091858 -232.09594727 332.72680664 C-234.7113927 324.91440043 -237.10219108 317.04053722 -239.4375 309.140625 C-239.95794784 307.38530232 -240.47878686 305.63009559 -241 303.875 C-241.25604004 303.01076416 -241.51208008 302.14652832 -241.77587891 301.25610352 C-243.40754536 295.80625405 -245.19768613 290.46749806 -247.3359375 285.19140625 C-248.13966005 282.53912182 -248.43367688 280.75384819 -248 278 C-246.0234375 275.859375 -246.0234375 275.859375 -243.375 273.75 C-233.81281097 265.53840264 -228.99023658 256.11421835 -227.6171875 243.4765625 C-227.34582898 235.28153521 -228.91631195 228.55165941 -232 221 C-232.37382812 220.06285156 -232.74765625 219.12570312 -233.1328125 218.16015625 C-233.41898437 217.44730469 -233.70515625 216.73445312 -234 216 C-233.27296875 215.33355469 -232.5459375 214.66710937 -231.796875 213.98046875 C-231.07733643 213.32087158 -231.07733643 213.32087158 -230.34326172 212.64794922 C-229.26681819 211.66123681 -228.19031938 210.6745847 -227.11376953 209.68798828 C-224.3688492 207.17227556 -221.624671 204.65576848 -218.8828125 202.13671875 C-214.36008332 197.98332628 -209.83028301 193.8400855 -205.25 189.75 C-200.05009813 185.0868622 -194.97255967 180.2967945 -189.88598633 175.51098633 C-185.51294541 171.40207151 -181.09036415 167.35879557 -176.61328125 163.36328125 C-172.58625089 159.72149744 -168.63135819 156.00322355 -164.66772461 152.29272461 C-160.79847673 148.67263469 -156.9116415 145.07424925 -153 141.5 C-145.94974078 135.05377906 -138.97633088 128.52601804 -132 122 C-117.83219433 108.74670726 -117.83219433 108.74670726 -111.0625 102.5625 C-106.33906732 98.24593097 -101.66277584 93.88197824 -97 89.5 C-91.3884519 84.22638564 -85.74089208 78.99777949 -80.0546875 73.8046875 C-76.53459189 70.58160721 -73.0487127 67.32213985 -69.5625 64.0625 C-57.82970879 53.09378779 -46.00918341 42.22041769 -34.14453125 31.39453125 C-28.32502784 26.07765702 -22.55428643 20.7132761 -16.8125 15.3125 C-11.2866714 10.11521653 -5.72543006 4.97794335 0 0 Z " fill="#FCFCFC" transform="translate(703,545)"/>
<path d="M0 0 C1.5078125 1.5390625 1.5078125 1.5390625 3.125 3.625 C8.84567383 10.37062789 14.12252873 13.68176932 22.8125 15.375 C26.171875 16.3359375 26.171875 16.3359375 29 18 C31.24367906 22.40960687 31.94813379 26.76335323 32.640625 31.63037109 C33.00842635 34.05556126 33.48454471 36.43410631 34 38.83203125 C35.77500201 47.10068428 37.25107753 55.38664944 38.5 63.75 C39.46186854 70.18585847 40.76734854 76.36221359 42.44482422 82.65234375 C45.26093261 93.4979852 46.83419048 104.65771618 48.58984375 115.71484375 C49.35300658 120.51457029 50.26440567 125.17236486 51.5 129.875 C53.88133602 139.08605609 55.38107474 148.47313153 55 158 C54.42894531 158.13535156 53.85789062 158.27070313 53.26953125 158.41015625 C36.24234212 162.9308885 22.82322182 173.53538534 13 188 C12.67 188.66 12.34 189.32 12 190 C5.12502343 188.48684726 -1.21931981 186.10633117 -7.75 183.5 C-8.9352124 183.03078125 -10.1204248 182.5615625 -11.34155273 182.078125 C-27.72345202 175.57364563 -44.0161026 168.84423267 -60.32139587 162.15080261 C-71.87109921 157.40970475 -83.43359384 152.70019388 -95 148 C-95.60227417 147.75517883 -96.20454834 147.51035767 -96.82507324 147.25811768 C-118.95309888 138.26347842 -141.09974477 129.31473312 -163.25 120.375 C-163.9242804 120.10282402 -164.59856079 119.83064804 -165.29327393 119.5502243 C-182.93898857 112.42790947 -200.59173415 105.32581992 -218.33105469 98.43896484 C-219.49668945 97.98473145 -220.66232422 97.53049805 -221.86328125 97.0625 C-222.84594971 96.68222656 -223.82861816 96.30195313 -224.84106445 95.91015625 C-227 95 -227 95 -228 94 C-228.14115161 91.32941149 -228.04247107 88.67567762 -228 86 C-221.95540405 83.19902168 -215.871313 80.81914457 -209.5625 78.6875 C-201.40522054 75.88295977 -193.36072757 72.86006713 -185.3359375 69.69921875 C-178.59103721 67.0434712 -171.79252319 64.53083305 -165 62 C-164.29649414 61.72349609 -163.59298828 61.44699219 -162.86816406 61.16210938 C-157.31604947 59 -157.31604947 59 -154 59 C-154 58.34 -154 57.68 -154 57 C-150.58436292 55.74717423 -147.16747959 54.49779085 -143.75 53.25 C-142.7396167 52.88092529 -141.7292334 52.51185059 -140.68823242 52.1315918 C-135.5866005 50.27596806 -130.48355716 48.46751298 -125.3125 46.8125 C-121.88412275 45.69625366 -118.66951705 44.42490623 -115.421875 42.86328125 C-106.78419781 38.89380025 -97.83682837 35.70089914 -88.9375 32.375 C-85.96085113 31.25773514 -82.98473755 30.13905273 -80.00866699 29.02024841 C-77.92621857 28.2374228 -75.84361515 27.45500942 -73.76086426 26.67298889 C-60.36841834 21.64201388 -47.00102006 16.54504053 -33.63204956 11.4520874 C-30.56485133 10.28379136 -27.49728908 9.11645524 -24.4296875 7.94921875 C-23.53555649 7.60820633 -22.64142548 7.26719391 -21.72019958 6.91584778 C-19.14905361 5.93780235 -16.5750589 4.9676921 -14 4 C-13.01404846 3.62565826 -12.02809692 3.25131653 -11.01226807 2.8656311 C-9.53883942 2.31496475 -9.53883942 2.31496475 -8.03564453 1.75317383 C-7.14362335 1.41755936 -6.25160217 1.08194489 -5.33255005 0.73616028 C-3 0 -3 0 0 0 Z " fill="#FCFCFC" transform="translate(677,268)"/>
<path d="M0 0 C2.375 2.625 2.375 2.625 4 6 C2.76387198 11.43414719 -0.11329558 16.20098505 -2.75 21.0625 C-6.22730163 27.56551372 -9.50426681 34.09681487 -12.5390625 40.8203125 C-14.12412086 44.27014541 -15.79554249 47.67070417 -17.5 51.0625 C-17.81735107 51.69470459 -18.13470215 52.32690918 -18.46166992 52.97827148 C-20.20707957 56.44905679 -21.95805719 59.91701238 -23.71044922 63.38427734 C-25.30165747 66.53323692 -26.88856532 69.6843407 -28.47363281 72.83639526 C-29.11352869 74.10680657 -29.75495546 75.376448 -30.39794922 76.64529419 C-31.30934519 78.4439606 -32.21531495 80.24537333 -33.12109375 82.046875 C-33.91664673 83.62227051 -33.91664673 83.62227051 -34.72827148 85.22949219 C-35.7814204 87.52381622 -36.51555922 89.53604033 -37 92 C-37.66 92 -38.32 92 -39 92 C-39.10328613 92.69625488 -39.20657227 93.39250977 -39.31298828 94.10986328 C-40.11237698 97.47275005 -41.42095229 100.16242003 -42.9921875 103.2421875 C-43.29341019 103.83760849 -43.59463287 104.43302948 -43.90498352 105.04649353 C-44.5522347 106.32481331 -45.20210342 107.6018105 -45.8543396 108.87759399 C-47.5970531 112.28803924 -49.31887223 115.70902255 -51.04296875 119.12890625 C-51.56093773 120.15460976 -51.56093773 120.15460976 -52.08937073 121.20103455 C-54.8634858 126.70330777 -57.55125224 132.24279861 -60.1875 137.8125 C-65.314249 148.62340426 -70.5598472 159.37490185 -75.8125 170.125 C-83.36008763 185.5759121 -90.86894106 201.04427568 -98.32910156 216.53759766 C-100.08577974 220.17775107 -101.85059346 223.81387207 -103.6171875 227.44921875 C-110.62124629 241.87373259 -117.4563564 256.35972825 -124 271 C-127.96 271 -131.92 271 -136 271 C-136.27972656 270.01644531 -136.55945313 269.03289062 -136.84765625 268.01953125 C-139.26912186 259.59994927 -141.85268317 251.24854095 -144.625 242.9375 C-144.91383057 242.07036377 -145.20266113 241.20322754 -145.50024414 240.30981445 C-146.73876766 236.62550002 -148.01106565 232.9707378 -149.38623047 229.33422852 C-151.18818208 224.55061457 -152.8304185 219.71664287 -154.46875 214.875 C-154.79033081 213.92866699 -155.11191162 212.98233398 -155.4432373 212.00732422 C-156.80728371 207.9931447 -158.16840091 203.97797362 -159.52978516 199.96289062 C-160.52925543 197.01658036 -161.53022114 194.07078102 -162.53125 191.125 C-162.83446167 190.22894043 -163.13767334 189.33288086 -163.45007324 188.40966797 C-164.96492035 183.95233175 -166.53810834 179.52865244 -168.20806885 175.12731934 C-169.87171115 170.65837221 -171.41340318 166.14546522 -172.9765625 161.640625 C-173.34727875 160.57382507 -173.717995 159.50702515 -174.09994507 158.40789795 C-174.87866995 156.16582873 -175.65686944 153.92357697 -176.43457031 151.68115234 C-177.62625834 148.2463731 -178.82086411 144.81261765 -180.015625 141.37890625 C-180.77361519 139.19537417 -181.53143369 137.01178249 -182.2890625 134.828125 C-182.6463443 133.80205139 -183.0036261 132.77597778 -183.37173462 131.71881104 C-183.7023288 130.76391785 -184.03292297 129.80902466 -184.37353516 128.82519531 C-184.6642691 127.98772766 -184.95500305 127.15026001 -185.25454712 126.28741455 C-185.93324127 124.20484848 -186.50004424 122.13165846 -187 120 C-186.23816406 119.46632813 -185.47632813 118.93265625 -184.69140625 118.3828125 C-170.17391461 107.90701953 -160.25086429 95.34376387 -155 78 C-154.78601563 77.32195312 -154.57203125 76.64390625 -154.3515625 75.9453125 C-152.91588947 70.59795063 -152.7245099 65.19316087 -152.44921875 59.69140625 C-152.40518921 58.85516724 -152.36115967 58.01892822 -152.3157959 57.15734863 C-152.20808742 55.10502585 -152.10371148 53.05252865 -152 51 C-151.25610519 50.74516342 -150.51221039 50.49032684 -149.74577332 50.22776794 C-140.22572705 46.96615803 -130.70635273 43.70259147 -121.1875 40.4375 C-120.42293613 40.17524879 -119.65837227 39.91299759 -118.8706398 39.64279938 C-99.79371127 33.09870701 -80.72379476 26.53658384 -61.6875 19.875 C-55.12573207 17.58123637 -48.56337834 15.28915171 -42 13 C-41.11985229 12.69302185 -40.23970459 12.3860437 -39.33288574 12.06976318 C-33.93010073 10.18671919 -28.52479101 8.31119979 -23.11611938 6.44512939 C-21.43418615 5.86378837 -19.75299174 5.28030468 -18.07260132 4.69451904 C-15.78082951 3.89600222 -13.4865313 3.10522387 -11.19140625 2.31640625 C-10.51761932 2.07975754 -9.8438324 1.84310883 -9.14962769 1.59928894 C-5.85999835 0.47820957 -3.53322926 0 0 0 Z " fill="#FCFCFC" transform="translate(971,432)"/>
<path d="M0 0 C15.23656597 8.25593663 30.33736813 16.72814653 45.31689453 25.44140625 C62.97591513 35.69938509 80.69978572 45.84440401 98.43701172 55.96630859 C103.8439503 59.05208574 109.24880171 62.14151578 114.65383911 65.23062134 C117.58164501 66.90388943 120.50957966 68.57693217 123.4375 70.25 C135.6875 77.25 135.6875 77.25 138.35083008 78.77197266 C140.06412874 79.75095426 141.7775066 80.72979725 143.4909668 81.70849609 C147.68988221 84.10706298 151.88732319 86.50814424 156.08203125 88.9140625 C166.52356716 94.89890567 177.00059762 100.81652734 187.5065918 106.6875 C198.35934477 112.75349061 209.18147226 118.87323264 220 125 C219.67 130.28 219.34 135.56 219 141 C215.86757813 142.03833984 215.86757813 142.03833984 212.671875 143.09765625 C180.48913032 153.77905452 148.38751919 164.69357173 116.375 175.875 C115.4764328 176.18878601 114.5778656 176.50257202 113.65206909 176.8258667 C105.63342087 179.62662591 97.61587285 182.43045085 89.60342407 185.24890137 C86.57003984 186.31488181 83.53482705 187.37563546 80.5 188.4375 C79.44989746 188.8092334 78.39979492 189.1809668 77.31787109 189.56396484 C76.37766113 189.89219238 75.43745117 190.22041992 74.46875 190.55859375 C73.26895508 190.98096313 73.26895508 190.98096313 72.04492188 191.41186523 C70 192 70 192 67 192 C66.67128906 191.32195312 66.34257813 190.64390625 66.00390625 189.9453125 C57.90760998 174.10377888 44.82106984 162.6027648 27.98583984 156.63330078 C21.77320499 154.65204005 15.38081765 153.31324334 9 152 C8.20412582 147.93831296 7.41410556 143.87550701 6.625 139.8125 C6.40328125 138.68134766 6.1815625 137.55019531 5.953125 136.38476562 C4.63667015 129.58953543 3.48040659 122.80215376 2.54052734 115.9440918 C1.96877475 112.82992535 1.0324256 109.98922625 0 107 C-0.37783588 104.86155387 -0.71062823 102.71470254 -1 100.5625 C-1.63186757 95.87426832 -2.68803828 91.5421705 -4 87 C-4.53089868 84.44372286 -5.0298136 81.88063765 -5.5 79.3125 C-5.7371875 78.02988281 -5.974375 76.74726563 -6.21875 75.42578125 C-6.64592304 73.05431031 -7.05113642 70.68189462 -7.43359375 68.30273438 C-8.69916045 60.43216461 -10.29592435 52.6614447 -12 44.875 C-13.00540136 40.2511492 -14.0068621 35.62650118 -15 31 C-15.20737793 30.03884277 -15.41475586 29.07768555 -15.62841797 28.08740234 C-16.78390683 22.56582359 -17.18211998 17.64571926 -17 12 C-15.91332031 11.45472656 -15.91332031 11.45472656 -14.8046875 10.8984375 C-8.93293762 7.84512756 -4.38055036 4.97251663 0 0 Z " fill="#FDFDFD" transform="translate(745,271)"/>
<path d="M0 0 C5.14115856 0.55094151 9.52541375 1.77383723 14.30078125 3.78125 C14.99683975 4.06611267 15.69289825 4.35097534 16.41004944 4.64447021 C18.71390036 5.58911252 21.01305949 6.54467803 23.3125 7.5 C24.96073865 8.17763804 26.60934759 8.85437601 28.25830078 9.53027344 C31.73970931 10.95788341 35.2196545 12.38898123 38.69873047 13.82226562 C46.38175213 16.98328427 54.08538252 20.09325552 61.78851318 23.2048645 C64.4025514 24.26113284 67.01605914 25.31870305 69.62939453 26.37670898 C78.99692652 30.16910324 88.36658315 33.95619401 97.73828125 37.73828125 C120.01515847 46.72994766 142.2679327 55.77649089 164.48600769 64.91246033 C173.85346015 68.76356667 183.22612647 72.60192946 192.59976196 76.43795776 C194.49942329 77.21547264 196.3989836 77.99323437 198.2984314 78.77127075 C206.88942158 82.29023381 215.48126131 85.80734369 224.09375 89.2734375 C225.17333984 89.70833496 226.25292969 90.14323242 227.36523438 90.59130859 C232.21453158 92.47070441 237.11236832 94.22267939 242 96 C241.67 103.92 241.34 111.84 241 120 C230.92749924 124.0290003 220.92290767 127.75716508 210.55419922 130.93774414 C205.78413456 132.40891793 201.18312224 134.06193965 196.58203125 136.00390625 C193.10826212 137.34401386 189.55960034 138.41571866 186 139.5 C180.84930601 141.07222997 175.84401084 142.79735675 170.87109375 144.86328125 C166.21527147 146.70660681 161.47759885 148.3118857 156.74707031 149.9519043 C151.5134446 151.76812045 146.28903163 153.60692584 141.07421875 155.4765625 C125.004842 161.23225405 108.87696148 166.77082225 92.66601562 172.1159668 C91.55361008 172.48342514 91.55361008 172.48342514 90.41873169 172.85830688 C89.03420482 173.31529903 87.64920718 173.77086853 86.26364136 174.22470093 C83.54368349 175.12195073 80.87033968 176.05339289 78.22119141 177.14428711 C75.68462545 178.12149789 73.69527416 178.15401567 71 178 C70.78085937 177.34515625 70.56171875 176.6903125 70.3359375 176.015625 C68.16430034 169.76554731 65.54036119 163.9878919 62.5078125 158.11328125 C60.95077478 154.8983614 59.67731452 151.66155871 58.4375 148.3125 C56.72170742 143.69305845 54.75042432 139.54030419 52.25292969 135.30249023 C51.02781825 133.05112118 50.08568586 130.83406933 49.171875 128.44140625 C46.92973369 122.73418507 44.39343305 117.18563687 41.8125 111.625 C38.01007675 103.40630939 34.26495684 95.16414699 30.5537262 86.90394592 C27.47104138 80.0431843 24.37439942 73.18884837 21.27059937 66.33761597 C19.26867148 61.91844452 17.26910249 57.49823836 15.2746582 53.07568359 C10.08447905 41.56951631 10.08447905 41.56951631 4.80154419 30.10575867 C3.54395601 27.40414913 2.29713997 24.69764567 1.05163574 21.990448 C0.20601086 20.16496021 -0.65610011 18.34713811 -1.51855469 16.52954102 C-2.01387695 15.44987061 -2.50919922 14.3702002 -3.01953125 13.2578125 C-3.45370361 12.3311377 -3.88787598 11.40446289 -4.33520508 10.44970703 C-5 8 -5 8 -4.2253418 5.81201172 C-2.87894376 3.82098437 -1.4850321 1.89004086 0 0 Z " fill="#FCFCFC" transform="translate(439,382)"/>
<path d="M0 0 C1.79244141 0.01740234 1.79244141 0.01740234 3.62109375 0.03515625 C5.41740234 0.04869141 5.41740234 0.04869141 7.25 0.0625 C8.17683594 0.07410156 9.10367188 0.08570313 10.05859375 0.09765625 C27.23029238 38.23604819 27.23029238 38.23604819 34.55859375 54.59765625 C45.86354741 79.82735587 57.18100795 105.05021795 68.69699097 130.18444824 C72.47566954 138.43242306 76.24874384 146.68218241 79.93359375 154.97265625 C80.38919678 155.99721924 80.38919678 155.99721924 80.85400391 157.04248047 C81.59697208 158.72398123 82.32847164 160.41053793 83.05859375 162.09765625 C83.45304688 163.00773438 83.8475 163.9178125 84.25390625 164.85546875 C85.05859375 167.09765625 85.05859375 167.09765625 85.05859375 170.09765625 C84.38393066 170.31905273 83.70926758 170.54044922 83.01416016 170.76855469 C79.90287846 171.79163141 76.7932382 172.81961436 73.68359375 173.84765625 C72.09224609 174.36972656 72.09224609 174.36972656 70.46875 174.90234375 C64.64546608 176.83152983 58.93389061 178.90509447 53.25634766 181.22705078 C50.36090376 182.37403511 47.42171569 183.28641427 44.43359375 184.16015625 C40.32452721 185.36596545 36.33881536 186.74621254 32.33309937 188.25782776 C28.31349491 189.7420089 24.25129507 191.09949647 20.19140625 192.46875 C18.25094884 193.12613887 16.31052032 193.78361303 14.37011719 194.44116211 C13.36074097 194.7827536 12.35136475 195.12434509 11.31140137 195.47628784 C-4.22337771 200.73533469 -19.73893615 206.03867531 -35.19140625 211.53515625 C-45.57940859 215.22726266 -55.98637182 218.84936987 -66.44140625 222.34765625 C-68.15312012 222.92277954 -68.15312012 222.92277954 -69.89941406 223.50952148 C-70.93420898 223.85313721 -71.96900391 224.19675293 -73.03515625 224.55078125 C-73.93943359 224.85145508 -74.84371094 225.15212891 -75.77539062 225.46191406 C-77.94140625 226.09765625 -77.94140625 226.09765625 -79.94140625 226.09765625 C-81.2734375 224.3046875 -81.2734375 224.3046875 -82.75390625 221.91015625 C-84.59415991 219.01379642 -86.28814024 216.59829376 -88.87890625 214.34765625 C-90.94140625 212.09765625 -90.94140625 212.09765625 -91.00390625 209.78515625 C-89.84739004 206.85985054 -88.49258167 204.11003521 -87.04296875 201.3203125 C-85.50381671 198.21471849 -84.26495722 195.01557964 -83.00390625 191.7890625 C-81.87769663 188.93627416 -80.69541197 186.11125887 -79.50390625 183.28515625 C-77.70713257 179.00266194 -76.01670245 174.6933425 -74.37890625 170.34765625 C-72.77130186 166.1176472 -71.00788986 162.12180577 -68.90625 158.12109375 C-67.73565188 155.66615518 -66.84445684 153.16274159 -65.94140625 150.59765625 C-64.79763861 147.34882211 -63.60547066 144.27141742 -62.00390625 141.22265625 C-59.74677709 136.90236997 -58.07965908 132.39637118 -56.3828125 127.83203125 C-54.37217446 122.53214192 -52.1370184 117.32279936 -49.94140625 112.09765625 C-49.34136329 110.66895652 -48.74134869 109.24024488 -48.14135742 107.81152344 C-47.81938889 107.04492905 -47.49742035 106.27833466 -47.16569519 105.48851013 C-38.83933094 85.66332783 -30.56661756 65.81875639 -22.44140625 45.91015625 C-21.68408324 44.05493115 -20.92675903 42.19970653 -20.16943359 40.34448242 C-19.80384338 39.44888107 -19.43825317 38.55327972 -19.06158447 37.63053894 C-18.70352722 36.75343765 -18.34546997 35.87633636 -17.9765625 34.97265625 C-17.45180328 33.6871563 -17.45180328 33.6871563 -16.91644287 32.37568665 C-13.9230128 25.04588355 -10.91384319 17.7228821 -7.87890625 10.41015625 C-7.27949219 8.95863159 -7.27949219 8.95863159 -6.66796875 7.4777832 C-6.31347656 6.62659912 -5.95898438 5.77541504 -5.59375 4.8984375 C-5.29460693 4.17825439 -4.99546387 3.45807129 -4.68725586 2.71606445 C-3.41132071 -0.05256865 -3.27970943 0.1088881 0 0 Z " fill="#FCFCFC" transform="translate(405.94140625,397.90234375)"/>
<path d="M0 0 C1.010625 0.16371094 2.02125 0.32742188 3.0625 0.49609375 C9.67995212 1.32327526 16.34343143 1.10487776 23 1.0625 C24.36067544 1.05747487 25.72135267 1.05291376 27.08203125 1.04882812 C30.38806725 1.03710459 33.69401001 1.02069427 37 1 C41.63681383 13.6300994 46.17673823 26.28855951 50.57421875 39.00390625 C52.43832449 44.39149971 54.32012084 49.77271105 56.20703125 55.15234375 C64.33893189 78.3539948 72.31659136 101.60458888 80.18505859 124.89697266 C80.74453941 126.55101105 80.74453941 126.55101105 81.31532288 128.23846436 C82.01549748 130.30888323 82.7144924 132.37970157 83.41209412 134.45098877 C83.72445511 135.37450134 84.0368161 136.29801392 84.35864258 137.24951172 C84.62872635 138.05025116 84.89881012 138.8509906 85.17707825 139.67599487 C85.76817914 141.34531701 86.40878895 142.99741433 87.08036804 144.63601685 C88.1411027 147.36271511 88.42472094 149.10162961 88 152 C86.42578125 153.95703125 86.42578125 153.95703125 84.3125 155.8125 C78.8123317 161.00225316 75.61236877 166.23652166 72.859375 173.2578125 C72.50842773 174.14871582 72.15748047 175.03961914 71.79589844 175.95751953 C71.53325195 176.63153809 71.27060547 177.30555664 71 178 C63.86982532 178.50882053 56.73935511 179.01328821 49.60852146 179.51279354 C46.29428746 179.74507591 42.98019577 179.97905928 39.66625977 180.21557617 C25.06983662 181.25639357 10.48986925 182.21286326 -4.13853455 182.66160583 C-8.85792292 182.81639028 -13.34843597 183.12474099 -18 184 C-19.49275131 184.1132465 -20.98814937 184.19669635 -22.484375 184.24609375 C-23.32411865 184.27775635 -24.1638623 184.30941895 -25.02905273 184.34204102 C-25.92696533 184.37354248 -26.82487793 184.40504395 -27.75 184.4375 C-36.33408386 184.7745161 -44.87658571 185.35271921 -53.4375 186.0625 C-62.6575722 186.81965488 -71.7497786 187.27475905 -81 187 C-78.94639832 178.99884737 -75.77533127 171.57727004 -72.39468384 164.06481934 C-71.40428962 161.86369068 -70.42136023 159.65935434 -69.44018555 157.45410156 C-68.02492282 154.27369222 -66.60734749 151.09432844 -65.18847656 147.91552734 C-61.90468187 140.54939958 -58.66288016 133.1648256 -55.42245483 125.77954102 C-54.3081484 123.24008288 -53.19279187 120.70108765 -52.07739258 118.16210938 C-47.87962629 108.6007468 -43.70538459 99.02941645 -39.55078125 89.44921875 C-39.09679459 88.40281219 -38.64280792 87.35640564 -38.17506409 86.27828979 C-35.96294401 81.17873575 -33.75338683 76.07809687 -31.5480957 70.97558594 C-30.74307435 69.11780689 -29.93798343 67.26005798 -29.1328125 65.40234375 C-28.77314896 64.5676506 -28.41348541 63.73295746 -28.04292297 62.87297058 C-26.12014107 58.44292469 -24.09732503 54.09897055 -21.87619019 49.81007385 C-20.95528896 47.90763389 -20.21341794 45.98868171 -19.5 44 C-18.24555638 40.50937427 -16.6667597 37.29310971 -14.96875 34 C-14.01379748 32.02848511 -13.24052554 30.06059279 -12.5 28 C-11.5363994 25.32160479 -10.44613045 22.8332169 -9.125 20.3125 C-6.71304586 15.65557315 -4.95801068 10.7712838 -3.1484375 5.85546875 C-2 3 -2 3 0 0 Z " fill="#FBFBFB" transform="translate(728,559)"/>
</svg>
